<svg viewBox="0 0 100 100" xmlns="http://www.w3.org/2000/svg"><path d="M57.5 5.1C39.7-2.4 23.8 30.9 21.4 44.9s-18.2 34.9 3.7 47 67.1-8.1 62.5-39.2S75.2 12.6 57.5 5.1z" fill="#dcf0ff"/><path d="M49.7 34.5c-.2-.8-1.2-1.1-1.8-.5l-6.7 6.7-6.1-1-1-6.1 6.7-6.7c.6-.6.3-1.6-.5-1.8-4.3-1.1-9 .1-12.4 3.4-3.6 3.6-4.6 8.8-3.1 13.3L5.5 61.1c-2.3 2.3-2.3 5.9 0 8.2s5.9 2.3 8.2 0L32.9 50c4.5 1.5 9.7.5 13.3-3.1 3.4-3.3 4.6-8.1 3.5-12.4zM9.5 67.4c-1.2 0-2.2-1-2.2-2.2s1-2.2 2.2-2.2 2.2 1 2.2 2.2-1 2.2-2.2 2.2z" fill="#2c8aff"/><path d="M85.4 76.4c1.5 2.6-.4 5.8-3.4 5.8H43.3c-3 0-4.8-3.2-3.4-5.8l19.4-33.6c1.5-2.6 5.2-2.6 6.7 0zm-22.7-6.9c-2.1 0-3.7 1.7-3.7 3.7s1.7 3.7 3.7 3.7c2.1 0 3.7-1.7 3.7-3.7s-1.6-3.7-3.7-3.7zm-3.5-13.4l.6 11c0 .5.5.9 1 .9h3.9c.5 0 .9-.4 1-.9l.6-11c0-.6-.4-1-1-1h-5.1c-.6 0-1 .5-1 1z" fill="#64aeff"/><g fill="#2c8aff"><path d="M56.2 13.3l-2.8 1.1-1.1 2.8-1.1-2.8-2.8-1.1 2.8-1.1 1.1-2.8 1.1 2.8zM32.4 71.7l-2.8 1.1-1.1 2.9-1.1-2.9-2.8-1.1 2.8-1.1 1.1-2.8 1.1 2.8zM96.2 45.8l-2.8 1.1-1.1 2.8-1.1-2.8-2.8-1.1 2.8-1.1 1.1-2.9 1.1 2.9zM19.4 33.9L16.6 35l-1.1 2.8-1.1-2.8-2.8-1.1 2.8-1.1 1.1-2.9 1.1 2.9z"/></g><path d="M29.6 91.3l-1.1-.6c.1-.6.1-1.2 0-1.8l1.1-.6c.1-.1.2-.2.1-.4-.3-.9-.8-1.7-1.4-2.4-.1-.1-.3-.1-.4-.1l-1.1.6c-.4-.4-1-.7-1.5-.9V84c0-.1-.1-.3-.2-.3-.9-.2-1.9-.2-2.7 0-.1 0-.2.2-.2.3v1.2c-.6.2-1.1.5-1.5.9l-1.1-.6c-.1-.1-.3 0-.4.1-.6.7-1.1 1.5-1.4 2.4 0 .1 0 .3.1.4l1.1.6c-.1.6-.1 1.2 0 1.8l-1 .5c-.1.1-.2.2-.1.4.3.9.8 1.7 1.4 2.4.1.1.3.1.4.1l1.1-.6c.4.4 1 .7 1.5.9v1.2c0 .1.1.3.2.3.9.2 1.9.2 2.7 0 .1 0 .2-.2.2-.3v-1.2c.6-.2 1.1-.5 1.5-.9l1.1.6c.1.1.3 0 .4-.1.6-.7 1.1-1.5 1.4-2.4-.1-.2-.1-.4-.2-.4zm-5.8.5c-1.1 0-2-.9-2-2s.9-2 2-2 2 .9 2 2-.9 2-2 2zM75.7 23l-3.2 1.4 3.5 3.4c.2.2.2.6 0 .9L74.8 30c-.2.2-.6.2-.8 0l-3.3-3.2-1.5 3.9c-.2.5-.9.5-1.1 0l-5.7-13.1c-.2-.5.3-1 .8-.8L75.8 22c.4 0 .4.7-.1 1z" fill="#64aeff"/></svg>