<?xml version="1.0" encoding="utf-8"?>
<!-- Generator: Adobe Illustrator 24.2.1, SVG Export Plug-In . SVG Version: 6.00 Build 0)  -->
<svg version="1.1" id="Layer_1" xmlns="http://www.w3.org/2000/svg" xmlns:xlink="http://www.w3.org/1999/xlink" x="0px" y="0px"
	 viewBox="0 0 443.9 285.3" style="enable-background:new 0 0 443.9 285.3;" xml:space="preserve">
<style type="text/css">
	.st0{fill:#DCF0FF;}
	.st1{opacity:0.5;}
	.st2{fill:#AEDCFF;}
	.st3{fill:#2C8AFF;}
	.st4{fill:#8BC7FC;}
	.st5{fill:#64AEFF;}
	.st6{fill:#FFFFFF;}
	.st7{fill:#E8F2FA;}
	.st8{fill:#A9C2FF;}
	.st9{fill:none;stroke:#2C8AFF;stroke-miterlimit:10;}
	.st10{fill:url(#SVGID_1_);}
	.st11{fill:url(#SVGID_2_);}
</style>
<g>
	<g>
		<path class="st0" d="M426,285.3c-26.1,0-407,0.1-407.2-0.6l0-0.1c0,0,0-0.1,0-0.1C18.5,284.2-40,188.4,51,121.8
			c35.6-26.1-2.2-43.3,26.1-72.3c32.5-33.4,68.1,3.5,104.2-11.6c6.4-2.7,12.8-7,19.2-13.6C215.4,9,235.9,1.9,257,0.3
			c40.4-3,85.9,14,109.4,38.8c4.7,5,26.2,30.9,9.3,66.5c-10.7,22.5,34.1,43.9,50,69.6C466.2,240.4,426.3,284.5,426,285.3z"/>
	</g>
	<g>
		<g class="st1">
			<path class="st2" d="M131.1,106c0,0-3-24.8-15.7-39.7c-1.7-2-4.9-0.7-4.9,1.9c0,0,0,0.1,0,0.1C110.7,72.8,125,91.5,131.1,106z"/>
		</g>
		<g class="st1">
			<path class="st2" d="M132.7,113.1c0,0-12.7-31.1-34.4-44.8c-1.3-0.8-3.1-0.5-4,0.8c-0.6,0.8-0.8,2.2-0.2,4.2
				C95.9,78.7,120,97.1,132.7,113.1z"/>
		</g>
	</g>
	<g>
		<g>
			<path class="st2" d="M318.7,129.2c0,0-5.6-12.1,4-16.1c0,0,6.7-1.9,11.3-0.3c0,0-9.7,9.2-7.9,10.9c1.8,1.7,10.1-11.1,10.1-11.1
				s13.4,2.4,17,5.6c0,0-13.7,6-11.5,7.2s16.7-4.4,16.7-4.4s11.5,5.5,8.8,12.7c-2.7,7.2-7.6,8.3-9.3,7.6c-1.8-0.7-11.4-7.8-12-6.4
				c-0.7,1.4,4.4,8.2,8.9,9.7c0,0-11.2,7-16.1,2.7c-4.9-4.3-4.2-8.8-7.3-11.4c-3.1-2.6-6.1-3.5-5.1-1.4c1,2.1,7,5.5,8,9.6
				c1,4.2,2.2,7.1-3.5,4.5c-5.6-2.5-14-9.5-13-14.6C318.7,129.2,318.7,129.2,318.7,129.2z"/>
		</g>
		<g>
			<g>
				<path class="st2" d="M361.2,132.4c0,0-32.6-10.5-42.5-3.2c0,0-3,4.4-9.2,7.4l-1.4,1.9c0,0,7.4-4.4,9.5-4.2
					C317.7,134.3,317.8,121.7,361.2,132.4z"/>
			</g>
			<g>
				<path class="st2" d="M309.5,136.6c0,0-8.5,3.2-11.7,12.4l1.3,0.5c0,0,5-9,10.1-11.7C314.4,135.2,309.5,136.6,309.5,136.6z"/>
			</g>
		</g>
	</g>
	<g>
		<g>
			<path class="st2" d="M280.5,103.6c0,0-16.8-9.1-9.2-21.9c0,0,6.1-7.9,12.8-10c0,0-3.3,19,0.3,19.4c3.6,0.4,2.1-21.4,2.1-21.4
				s17.5-8.7,24.4-8.1c0,0-10.7,18.6-7.1,18.1c3.6-0.5,15.5-19.4,15.5-19.4s18-3.6,21,7.1c3,10.7-1.6,16.1-4.2,16.8
				c-2.7,0.7-19.8,0.7-19.3,2.9c0.5,2.2,12.1,5.6,18.5,3.5c0,0-6.9,17.7-16.2,16.9c-9.4-0.8-12.3-6.5-18.1-6.9
				c-5.8-0.4-10,1.3-7.1,2.8c2.9,1.5,12.7,0.3,17.4,4.2c4.7,3.9,8.6,6.3-0.1,8.2c-8.7,1.9-24.3,1-27.5-5.6
				C280.5,103.6,280.5,103.6,280.5,103.6z"/>
		</g>
		<g>
			<g>
				<path class="st2" d="M332.2,70.8c0,0-46.6,15.8-51.7,32.8c0,0,0.3,7.6-4.2,16.3l0,3.3c0,0,4.7-11.4,7.4-13
					C283.7,110.3,273,95.7,332.2,70.8z"/>
			</g>
			<g>
				<path class="st2" d="M276.3,120c0,0-7.1,11.1-2.8,24.3l1.8-0.5c0,0-2-14.7,1.7-22.1C280.7,114.2,276.3,120,276.3,120z"/>
			</g>
		</g>
	</g>
	<g>
		<g>
			<path class="st2" d="M121.3,228.4c0,0-3.5-15.6-15.4-12.4c0,0-7.7,3.1-10.9,7.9c0,0,15.9,1.7,15.4,4.6
				c-0.5,2.9-17.6-3.2-17.6-3.2s-11,12-12.1,17.7c0,0,17.3-4.3,16.1-1.5c-1.2,2.7-19.1,8-19.1,8s-7,13.6,0.8,18.4
				c7.8,4.9,13.2,2.4,14.4,0.4c1.2-2,5.1-15.7,6.8-14.8c1.7,0.9,1.7,11-1.4,15.6c0,0,15.7-1.5,17.3-9.1c1.5-7.7-2.4-11.4-1.4-16.1
				c1-4.7,3.3-7.7,3.8-5c0.5,2.7-2.6,10.2-0.6,14.9c2,4.7,3.1,8.3,6.6,1.8c3.5-6.5,6.3-19.2,1.8-23.3
				C121.3,228.4,121.3,228.4,121.3,228.4z"/>
		</g>
		<g>
			<g>
				<path class="st2" d="M83.2,262.3c0,0,23.3-33.7,38-33.9c0,0,6,2,14,0.3l2.7,0.8c0,0-10.2,1.2-12.1,2.9
					C125.8,232.5,116.6,220.7,83.2,262.3z"/>
			</g>
			<g>
				<path class="st2" d="M135.3,228.8c0,0,10.5-3.1,20.1,3.3l-0.8,1.4c0,0-11.3-5-18.1-3.7C129.7,231,135.3,228.8,135.3,228.8z"/>
			</g>
		</g>
	</g>
	<g>
		<path class="st3" d="M209.7,160.8l-9.8,116.8c0,0-1,7.1,4.2,7.1c8.7,0,43.1,0,43.1,0s-6.5-1.5-6.4-4.8
			c0.1-3.9,11.5-120.2,11.5-120.2L209.7,160.8z"/>
	</g>
	<g>
		<path class="st2" d="M250.4,282.5c-1.7,0-35,0.1-43.5,0c-3.7,0-4.3-3.3-4.3-5.4c0-1,0.1-1.7,0.1-1.7l0.3-3l0.7-7.7l0.6-6.8
			l0.7-8.8l0.6-7.4l7-83l42.5-1.1c0,0-4.8,48.7-8.2,84.1c-0.4,3.9-0.7,7.7-1.1,11.3c-0.1,1.1-0.2,2.2-0.3,3.3
			c-0.3,3.4-0.6,6.4-0.9,9.1c-0.1,1.4-0.3,2.8-0.4,4c-0.4,4.8-0.7,7.8-0.7,8.4c0,0.3,0,0.7,0.1,0.9
			C244.4,282.4,249.8,282.5,250.4,282.5z"/>
	</g>
	<g>
		<polygon class="st2" points="106.3,97.2 130.2,193.3 133.5,206.5 144.7,251.2 351.7,251.2 310.6,97.2 		"/>
	</g>
	<g>
		<polygon class="st3" points="106.3,97.2 103,98.3 140.3,254.6 144.7,251.2 		"/>
	</g>
	<g>
		<polygon class="st3" points="140.3,254.6 346,254.6 351.7,251.2 144.7,251.2 		"/>
	</g>
	<g>
		
			<rect x="212.5" y="282.5" transform="matrix(-1 -1.224647e-16 1.224647e-16 -1 469.5355 567.2161)" class="st2" width="44.5" height="2.1"/>
	</g>
	<g>
		<polygon class="st4" points="245.7,254.6 245.5,256.2 203.6,264.6 204.2,257.8 204.4,254.6 		"/>
	</g>
	<g>
		<path class="st4" d="M250.4,282.5c-1.7,0-35,0.1-43.5,0c-3.7,0-4.3-3.3-4.3-5.4l41.7-7.8c-0.4,4.8-0.7,7.8-0.7,8.4
			c0,0.3,0,0.7,0.1,0.9C244.4,282.4,249.8,282.5,250.4,282.5z"/>
	</g>
	<g>
		<polygon class="st5" points="106.3,97.2 310.6,97.2 343.7,221 137.1,221 		"/>
	</g>
	<g>
		<polygon class="st6" points="334.1,215.6 142.8,215.6 136,188.4 133.4,177.9 132.3,173.6 125.3,145.6 124.9,144.1 121.2,129.3 
			119.5,122.7 118.1,117.1 117,112.5 114.8,103.8 303.3,103.8 305.7,112.5 306.9,117.1 308.5,122.7 310.3,129.3 322.3,172.9 
			322.3,172.9 323.3,176.6 323.8,178.3 332.1,208.4 		"/>
	</g>
	<g>
		<polygon class="st4" points="214.7,221 144.7,251.6 137.1,221 		"/>
	</g>
	<g>
		<polygon class="st3" points="305.7,112.5 117,112.5 114.8,103.8 303.3,103.8 		"/>
	</g>
	<g>
		<g>
			<path class="st7" d="M126.5,108.2c0.2,0.8-0.2,1.4-1.1,1.4c-0.8,0-1.7-0.6-2-1.4c-0.2-0.8,0.2-1.4,1.1-1.4
				C125.4,106.8,126.3,107.5,126.5,108.2z"/>
		</g>
		<g>
			<path class="st7" d="M132.9,108.2c0.2,0.8-0.2,1.4-1.1,1.4c-0.8,0-1.7-0.6-2-1.4c-0.2-0.8,0.2-1.4,1.1-1.4
				C131.7,106.8,132.6,107.4,132.9,108.2z"/>
		</g>
		<g>
			<path class="st7" d="M139.2,108.2c0.2,0.8-0.2,1.4-1.1,1.4c-0.8,0-1.7-0.6-2-1.4c-0.2-0.8,0.2-1.4,1.1-1.4
				C138.1,106.8,139,107.4,139.2,108.2z"/>
		</g>
	</g>
	<g>
		<path class="st8" d="M357.9,192.9C357.9,192.9,357.9,192.9,357.9,192.9C357.9,192.9,357.9,192.9,357.9,192.9
			C357.9,192.9,357.8,192.9,357.9,192.9z"/>
	</g>
	<g>
		<g>
			<path class="st3" d="M367.6,212.4l2.4,9c0.5,2.2-1.2,4-3.7,4h-87.4c-2.5,0-5-1.8-5.5-4l-2.4-9c0-0.1,0-0.2,0-0.3
				c-0.3-2.1,1.3-3.7,3.7-3.7h87.4c2.4,0,4.8,1.6,5.4,3.7C367.6,212.2,367.6,212.3,367.6,212.4z"/>
		</g>
		<g>
			<g>
				<polygon class="st6" points="278.4,208 277.7,208.2 278.9,212.5 279.6,212.5 				"/>
				<polygon class="st6" points="281.8,208 281.1,208.2 282.2,212.5 282.9,212.5 				"/>
				<polygon class="st6" points="285.1,208 284.5,208.2 285.6,212.5 286.3,212.5 				"/>
				<polygon class="st6" points="288.5,208 287.8,208.2 289,212.5 289.7,212.5 				"/>
				<polygon class="st6" points="295.2,208 294.6,208.2 295.7,212.5 296.4,212.5 				"/>
				<polygon class="st6" points="298.6,208 298,208.2 299.1,212.5 299.8,212.5 				"/>
				<polygon class="st6" points="302,208 301.3,208.2 302.5,212.5 303.2,212.5 				"/>
				<polygon class="st6" points="305.4,208 304.7,208.2 305.9,212.5 306.5,212.5 				"/>
				<polygon class="st6" points="312.1,208 311.5,208.2 312.6,212.5 313.3,212.5 				"/>
				<polygon class="st6" points="315.5,208 314.8,208.2 316,212.5 316.7,212.5 				"/>
				<polygon class="st6" points="318.9,208 318.2,208.2 319.3,212.5 320,212.5 				"/>
				<polygon class="st6" points="322.2,208 321.6,208.2 322.7,212.5 323.4,212.5 				"/>
				<polygon class="st6" points="329,208 328.3,208.2 329.5,212.5 330.2,212.5 				"/>
				<polygon class="st6" points="332.4,208 331.7,208.2 332.8,212.5 333.5,212.5 				"/>
				<polygon class="st6" points="335.7,208 335.1,208.2 336.2,212.5 336.9,212.5 				"/>
				<polygon class="st6" points="339.1,208 338.5,208.2 339.6,212.5 340.3,212.5 				"/>
				<polygon class="st6" points="345.9,208 345.2,208.2 346.3,212.5 347,212.5 				"/>
				<polygon class="st6" points="349.2,208 348.6,208.2 349.7,212.5 350.4,212.5 				"/>
				<polygon class="st6" points="352.6,208 352,208.2 353.1,212.5 353.8,212.5 				"/>
				<polygon class="st6" points="356,208 355.3,208.2 356.5,212.5 357.2,212.5 				"/>
			</g>
			<g>
				<polygon class="st6" points="291.9,208 291.2,208.2 292.8,214.3 293.5,214.3 				"/>
				<polygon class="st6" points="308.7,208 308.1,208.2 309.7,214.3 310.4,214.3 				"/>
				<polygon class="st6" points="325.6,208 325,208.2 326.6,214.3 327.3,214.3 				"/>
				<polygon class="st6" points="359.4,208 358.7,208.2 360.3,214.3 361,214.3 				"/>
				<polygon class="st6" points="342.5,208 341.8,208.2 343.4,214.3 344.1,214.3 				"/>
			</g>
		</g>
		<g>
			<path class="st9" d="M367.6,212.4l2.4,9c0.5,2.2-1.2,4-3.7,4h-87.4c-2.5,0-5-1.8-5.5-4l-2.4-9c0-0.1,0-0.2,0-0.3
				c-0.3-2.1,1.3-3.7,3.7-3.7h87.4c2.4,0,4.8,1.6,5.4,3.7C367.6,212.2,367.6,212.3,367.6,212.4z"/>
		</g>
	</g>
	<path class="st5" d="M106.6,171l-4-1.3c-0.1-2-0.5-4-1.3-5.9l3.1-2.9c0.4-0.3,0.4-0.9,0.2-1.3c-1.6-2.8-3.8-5.1-6.4-6.9
		c-0.4-0.3-0.9-0.2-1.3,0.1l-3.1,2.9c-1.8-0.9-3.7-1.6-5.7-1.8l-0.9-4.1c-0.1-0.5-0.5-0.8-1-0.8c-3.2,0-6.4,0.8-9.1,2.1
		c-0.4,0.2-0.7,0.7-0.6,1.2l0.9,4.1c-1.7,1.1-3.2,2.5-4.4,4.1l-4-1.3c-0.5-0.1-1,0-1.2,0.5c-1.6,2.7-2.5,5.8-2.8,8.9
		c0,0.5,0.3,0.9,0.7,1.1l4,1.3c0.1,2,0.5,4,1.3,5.9l-3.1,2.9c-0.4,0.3-0.4,0.9-0.2,1.3c1.6,2.8,3.8,5.1,6.4,6.9
		c0.4,0.3,0.9,0.2,1.3-0.1l3.1-2.9c1.8,0.9,3.7,1.6,5.7,1.8l0.9,4.1c0.1,0.5,0.5,0.8,1,0.8c3.2,0,6.4-0.8,9.1-2.1
		c0.4-0.2,0.7-0.7,0.6-1.2l-0.9-4.1c1.7-1.1,3.2-2.5,4.4-4.1l4,1.3c0.5,0.1,1,0,1.2-0.5c1.6-2.7,2.5-5.8,2.8-8.9
		C107.4,171.6,107.1,171.2,106.6,171z M87.6,177.1c-3.7,0.8-7.4-1.5-8.2-5.2c-0.8-3.7,1.5-7.4,5.2-8.2c3.7-0.8,7.4,1.5,8.2,5.2
		C93.7,172.6,91.3,176.3,87.6,177.1z"/>
	<g>
		<g>
			<polygon class="st0" points="303.2,202.1 172.3,202.1 167.6,183.5 165.8,176.3 165,173.3 160.2,154.2 160,153.2 157.4,143.1 
				156.3,138.5 155.3,134.7 154.5,131.5 153.1,125.6 282.1,125.6 283.7,131.5 284.6,134.7 285.6,138.5 286.9,143.1 295.1,172.9 
				295.1,172.9 295.8,175.4 296.1,176.6 301.8,197.2 			"/>
		</g>
		<path class="st5" d="M166.9,147.8c-0.2-0.8-1-1.3-1.9-1.3L164,142c0.8-0.3,1.3-1.2,1.1-2c-0.2-0.9-1.2-1.5-2.2-1.2
			s-1.6,1.2-1.4,2.1c0.2,0.8,1,1.3,1.9,1.3l1.1,4.5c-0.8,0.3-1.3,1.2-1.1,2c0.2,0.8,1,1.3,1.9,1.3l1.1,4.5c-0.8,0.3-1.3,1.2-1.1,2
			s1,1.3,1.9,1.3l1.1,4.5c-0.8,0.3-1.3,1.2-1.1,2c0.2,0.8,1,1.3,1.9,1.3l1.1,4.5c-0.8,0.3-1.3,1.2-1.1,2s1,1.3,1.9,1.3l1.1,4.5
			c-0.8,0.3-1.3,1.2-1.1,2s1,1.3,1.9,1.3l1.1,4.5c-0.8,0.3-1.3,1.2-1.1,2c0.2,0.8,1,1.3,1.9,1.3l1.1,4.5c-0.8,0.3-1.3,1.2-1.1,2
			c0.2,0.9,1.2,1.5,2.2,1.2s1.6-1.2,1.4-2.1c-0.2-0.8-1-1.3-1.9-1.3l-1.1-4.5c0.8-0.3,1.3-1.2,1.1-2c-0.2-0.8-1-1.3-1.9-1.3
			l-1.1-4.5c0.8-0.3,1.3-1.2,1.1-2c-0.2-0.8-1-1.3-1.9-1.3l-1.1-4.5c0.8-0.3,1.3-1.2,1.1-2s-1-1.3-1.9-1.3l-1.1-4.5
			c0.8-0.3,1.3-1.2,1.1-2c-0.2-0.8-1-1.3-1.9-1.3l-1.1-4.5c0.8-0.3,1.3-1.2,1.1-2s-1-1.3-1.9-1.3l-1.1-4.5
			C166.6,149.4,167.1,148.6,166.9,147.8z"/>
		<polygon class="st5" points="283.7,131.5 282.1,125.6 153.1,125.6 154.5,131.5 155,133.4 284.2,133.4 		"/>
		<polygon class="st5" points="273.8,184.3 265.3,153.4 189.7,153.4 197.4,184.3 199.9,194.3 276.5,194.3 		"/>
		<polygon class="st5" points="263,145.6 261.3,139.4 185.7,139.4 187.2,145.6 		"/>
		<polygon class="st2" points="288.2,167.8 284,152.6 270.5,152.6 274.3,167.8 275.5,172.7 289.5,172.7 		"/>
		<polygon class="st2" points="182.7,141.3 182.3,139.7 167.6,139.7 168,141.3 		"/>
		<polygon class="st2" points="184.2,148.2 183.8,146.7 169,146.7 169.4,148.2 		"/>
		<polygon class="st2" points="186.4,156.4 186,154.9 171.2,154.9 171.6,156.4 		"/>
		<polygon class="st2" points="188,164.2 187.6,162.6 172.8,162.6 173.2,164.2 		"/>
		<polygon class="st2" points="189.9,171.8 189.5,170.2 174.7,170.2 175.1,171.8 		"/>
		<polygon class="st2" points="191.9,179.4 191.5,177.8 176.7,177.8 177.1,179.4 		"/>
		<polygon class="st2" points="193.5,187.3 193.1,185.7 178.3,185.7 178.7,187.3 		"/>
		<polygon class="st2" points="195.7,195.5 195.3,193.9 180.5,193.9 180.9,195.5 		"/>
	</g>
	<g>
		<linearGradient id="SVGID_1_" gradientUnits="userSpaceOnUse" x1="204.0697" y1="148.3928" x2="204.0697" y2="76.4431">
			<stop  offset="0" style="stop-color:#FFFFFF;stop-opacity:0"/>
			<stop  offset="1" style="stop-color:#64AEFF"/>
		</linearGradient>
		<rect x="191.9" y="76.4" class="st10" width="24.3" height="71.9"/>
		<path class="st3" d="M216.2,75.7c0,6.7-5.4,12.1-12.1,12.1s-12.1-5.4-12.1-12.1c0-6.7,5.4-12.1,12.1-12.1S216.2,69,216.2,75.7z"/>
		<path class="st6" d="M202.7,82.1l9-9c0.3-0.3,0.3-0.8,0-1.1l-1.1-1.1c-0.3-0.3-0.8-0.3-1.1,0l-7.3,7.3l-3.4-3.4
			c-0.3-0.3-0.8-0.3-1.1,0l-1.1,1.1c-0.3,0.3-0.3,0.8,0,1.1l5.1,5.1C201.9,82.4,202.4,82.4,202.7,82.1L202.7,82.1z"/>
	</g>
	<g>
		<linearGradient id="SVGID_2_" gradientUnits="userSpaceOnUse" x1="242.3986" y1="171.3845" x2="242.3986" y2="43.419">
			<stop  offset="0" style="stop-color:#FFFFFF;stop-opacity:0"/>
			<stop  offset="1" style="stop-color:#64AEFF"/>
		</linearGradient>
		<rect x="230.3" y="43.4" class="st11" width="24.3" height="128"/>
		<path class="st3" d="M254.6,42.7c0,6.7-5.4,12.1-12.1,12.1s-12.1-5.4-12.1-12.1s5.4-12.1,12.1-12.1S254.6,36,254.6,42.7z"/>
		<path class="st6" d="M241.1,49.1l9-9c0.3-0.3,0.3-0.8,0-1.1l-1.1-1.1c-0.3-0.3-0.8-0.3-1.1,0l-7.3,7.3l-3.4-3.4
			c-0.3-0.3-0.8-0.3-1.1,0l-1.1,1.1c-0.3,0.3-0.3,0.8,0,1.1l5.1,5.1C240.3,49.4,240.8,49.4,241.1,49.1L241.1,49.1z"/>
	</g>
	<g>
		<path class="st3" d="M191.9,195c-0.1-0.5-0.7-0.6-1-0.2l-3.5,4.1l-3.5-0.3l-0.8-3.4l3.5-4.1c0.3-0.4,0.1-0.9-0.4-1
			c-2.5-0.4-5.1,0.4-6.8,2.5c-1.9,2.2-2.2,5.1-1.2,7.6L155,227.3c-1.2,1.4-1,3.4,0.4,4.6c1.4,1.2,3.4,1,4.6-0.4l23.2-27.1
			c2.6,0.7,5.5-0.1,7.4-2.3C192.2,200.1,192.7,197.4,191.9,195z"/>
	</g>
	<g>
		<path class="st5" d="M389,196.1l-6.7-9.7c-0.3-0.4-0.8-0.7-1.3-0.8l-1.3-0.2c2.8-2.5,4.8-5.9,5.5-9.8c1.7-9.4-4.5-18.4-13.9-20.1
			c-9.4-1.7-18.4,4.5-20.1,13.9c-1.7,9.4,4.5,18.4,13.9,20.1c4,0.7,7.8,0,11.1-1.7l-0.2,1.3c-0.1,0.5,0,1.1,0.3,1.5l6.7,9.7
			c0.6,0.9,1.9,1.1,2.8,0.5l2.7-1.9C389.4,198.3,389.7,197,389,196.1z M366.3,183c-5.8-1.1-9.6-6.6-8.6-12.4
			c1.1-5.8,6.6-9.6,12.4-8.6c5.8,1.1,9.6,6.6,8.6,12.4C377.7,180.2,372.1,184,366.3,183z"/>
	</g>
	<g>
		<path class="st5" d="M311.3,155c0.9,1.6-0.2,3.6-2.1,3.6h-24.2c-1.9,0-3-2-2.1-3.6l12.1-21c0.9-1.6,3.3-1.6,4.2,0L311.3,155
			L311.3,155z M297.2,150.6c-1.3,0-2.3,1-2.3,2.3c0,1.3,1,2.3,2.3,2.3s2.3-1,2.3-2.3C299.5,151.7,298.4,150.6,297.2,150.6z
			 M295,142.3l0.4,6.9c0,0.3,0.3,0.6,0.6,0.6h2.4c0.3,0,0.6-0.3,0.6-0.6l0.4-6.9c0-0.3-0.3-0.6-0.6-0.6h-3.2
			C295.2,141.7,294.9,142,295,142.3L295,142.3z"/>
	</g>
</g>
</svg>
