<svg viewBox="0 0 100 100" xmlns="http://www.w3.org/2000/svg"><path d="M66.8 5.9s-15.5-7.1-23 4.9-3.9 24.5-12 34.8-33.3 10.6-21 30.2 63.9 27.7 74.1.4S95.7 16.3 66.8 5.9z" fill="#dcf0ff"/><path d="M41.6 49.1L26.6 34c-1.3-1.3-3.7-.4-3.7 1.5v8.6H10.7c-1.2 0-2.2 1-2.2 2.2v8.6c0 1.2 1 2.2 2.2 2.2h12.2v8.6c0 1.9 2.3 2.9 3.7 1.5l15.1-15.1c.8-.8.8-2.2-.1-3z" fill="#64aeff"/><path d="M59.7 54.1c6.4 0 11.5-5.1 11.5-11.5S66 31.1 59.7 31.1s-11.5 5.1-11.5 11.5 5.1 11.5 11.5 11.5zm7.9 3.3h-.9c-2.1 1-4.5 1.6-7 1.6s-4.9-.6-7-1.6h-.9c-6.5 0-11.8 5.3-11.8 11.8v3c0 2.7 2.2 4.9 4.9 4.9h29.6c2.7 0 4.9-2.2 4.9-4.9v-3c0-6.5-5.3-11.8-11.8-11.8z" fill="#2c8aff"/><g fill="#64aeff"><circle cx="83" cy="44.2" r="5.9"/><path d="M86 54.1h-6.6c-1.8 0-3.4.7-4.6 1.9 4.1 2.3 7.1 6.4 7.7 11.2h6.8c1.8 0 3.3-1.5 3.3-3.3v-3.3c-.1-3.6-3-6.5-6.6-6.5zM34.4 79.6l-2.6 1-1.1 2.6-1-2.6-2.6-1 2.6-1 1-2.7 1.1 2.7z"/></g><path d="M63.4 92.6l-2.6 1-1.1 2.6-1-2.6-2.6-1 2.6-1 1-2.7 1.1 2.7z" fill="#2c8aff"/><path d="M75.4 20.6l-2.6 1-1.1 2.6-1-2.6-2.6-1 2.6-1 1-2.7 1.1 2.7z" fill="#64aeff"/><path d="M31.4 23.6l-2.6 1-1.1 2.6-1-2.6-2.6-1 2.6-1 1-2.7 1.1 2.7zM53.9 11.1c0 4-3.3 7.3-7.3 7.3s-7.3-3.3-7.3-7.3 3.3-7.3 7.3-7.3 7.3 3.3 7.3 7.3zM45.7 15l5.4-5.4c.2-.2.2-.5 0-.7l-.7-.7c-.2-.2-.5-.2-.7 0l-4.4 4.4-2.1-2.1c-.2-.2-.5-.2-.7 0l-.5.8c-.2.2-.2.5 0 .7l3 3c.2.2.5.2.7 0z" fill="#2c8aff"/></svg>