<svg viewBox="0 0 100 100" xmlns="http://www.w3.org/2000/svg"><path d="M76.5 90.5s14.2-5.2 10.2-18.8-15.8-19.2-18-32.1 14-31.9-8.8-35.7-62 38.9-48.4 64.6 38 36.7 65 22z" fill="#dcf0ff"/><path d="M22.4 49.3l17.3 7.8c.5.2 1.1.2 1.6 0l17.3-7.8c1.2-.6 1.2-2.4 0-3l-17.3-7.8c-.5-.2-1.1-.2-1.6 0l-17.3 7.8c-1.2.6-1.2 2.5 0 3zm36.1 6.6l-4.3-2-12 5.4c-.6.3-1.2.4-1.8.4s-1.2-.1-1.8-.4l-12-5.4-4.3 2c-1.2.6-1.2 2.4 0 3l17.3 7.8c.5.2 1.1.2 1.6 0l17.3-7.8c1.3-.6 1.3-2.5 0-3zm0 9.4l-4.3-1.9-12 5.4c-.6.3-1.2.4-1.8.4s-1.2-.1-1.8-.4l-12-5.4-4.3 1.9c-1.2.6-1.2 2.4 0 3l17.3 7.8c.5.2 1.1.2 1.6 0l17.3-7.8c1.3-.5 1.3-2.4 0-3z" fill="#64aeff"/><path d="M68.2 36.8h3.6c.3 0 .5.2.5.5v1c0 .3-.2.5-.5.5h-3.6V43h3.6c.3 0 .5.2.5.5v1c0 .3-.2.5-.5.5h-3.6v4.1h3.6c.3 0 .5.2.5.5v1c0 .3-.2.5-.5.5h-3.6v2.1c0 1.1.9 2.1 2.1 2.1h6.2c1.1 0 2.1-.9 2.1-2.1V24.5c0-.2-.1-.3-.1-.5L68.2 34.2zm-20.5-4.1h2.1v-3.6c0-.3.2-.5.5-.5h1c.3 0 .5.2.5.5v3.6h4.1v-3.6c0-.3.2-.5.5-.5h1c.3 0 .5.2.5.5v3.6H62v-3.6c0-.3.2-.5.5-.5h1c.3 0 .5.2.5.5v3.6h2.7l10.2-10.2c-.2 0-.3-.1-.5-.1H47.7c-1.1 0-2.1.9-2.1 2.1v6.2c0 1.1.9 2 2.1 2z" fill="#2c8aff"/><path d="M30 34l-2.6 1-1.1 2.6-1-2.6-2.6-1 2.6-1 1-2.6 1.1 2.6z" fill="#64aeff"/><path d="M62 11l-2.6 1-1.1 2.6-1-2.6-2.6-1 2.6-1 1-2.6 1.1 2.6z" fill="#2c8aff"/><path d="M79 75l-2.6 1-1.1 2.6-1-2.6-2.6-1 2.6-1 1-2.6 1.1 2.6z" fill="#64aeff"/><path d="M51 87l-2.6 1-1.1 2.6-1-2.6-2.6-1 2.6-1 1-2.6 1.1 2.6z" fill="#2c8aff"/><path d="M44.3 10.1l-1-.6c.1-.5.1-1.1 0-1.6l1-.6c.1-.1.2-.2.1-.3-.3-.8-.7-1.6-1.3-2.2-.1-.1-.2-.1-.3-.1l-1 .6c-.4-.4-.9-.6-1.4-.8V3.3c0-.1-.1-.2-.2-.3-.9-.2-1.7-.2-2.5 0-.1 0-.2.1-.2.3v1.1c-.5.2-1 .5-1.4.8l-1-.6c-.1-.1-.3 0-.3.1-.6.6-1 1.4-1.3 2.2 0 .1 0 .3.1.3l1 .6c-.1.5-.1 1.1 0 1.6l-1 .6c-.1.1-.2.2-.1.3.3.8.7 1.6 1.3 2.2.1.1.2.1.3.1l1-.6c.4.4.9.6 1.4.8V14c0 .1.1.2.2.3.9.2 1.7.2 2.5 0 .1 0 .2-.1.2-.3v-1.1c.5-.2 1-.5 1.4-.8l1 .6c.1.1.3 0 .3-.1.6-.6 1-1.4 1.3-2.2.1-.1 0-.3-.1-.3zm-5.3.4c-1 0-1.9-.8-1.9-1.9s.8-1.9 1.9-1.9 1.9.8 1.9 1.9-.9 1.9-1.9 1.9z" fill="#64aeff"/></svg>